# xmcd CD database file
#
# Track frame offsets:
#	150
#	24844
#	51689
#	83869
#	123868
#	153188
#	201031
#	231918
#
# Disc length: 3418 seconds
#
# Revision: 0
# Processed by: cddbd v1.5.1PL0 Copyright (c) Steve Scherf et al.
# Submitted via: CDex 1.51
#
DISCID=5e0d5808
DTITLE=Katahdin's Edge - Step Away
DYEAR=2004
DGENRE=Jazz
TTITLE0=Step Away
TTITLE1=Enigma
TTITLE2=Wagons of the Night
TTITLE3=Full Circle
TTITLE4=Zargonic Effect
TTITLE5=Traveler in the Dark
TTITLE6=Soulmates
TTITLE7=Zoeie
EXTD=YEAR: 2004
EXTT0=
EXTT1=
EXTT2=
EXTT3=
EXTT4=
EXTT5=
EXTT6=
EXTT7=
PLAYORDER=
